<mxfile host="app.diagrams.net" modified="2021-02-01T16:34:09.694Z" agent="5.0 (Macintosh)" etag="Ow2dXHDi9N8HWCXx6Wgv" version="14.2.9" type="github">
  <diagram id="dqaOxwCNVm4bTsbSVRbA" name="Page-1">
    <mxGraphModel dx="1796" dy="1763" grid="1" gridSize="10" guides="1" tooltips="1" connect="1" arrows="1" fold="1" page="1" pageScale="1" pageWidth="850" pageHeight="1100" math="0" shadow="0">
      <root>
        <mxCell id="0" />
        <mxCell id="1" parent="0" />
        <mxCell id="R85agXf6EkqI4fIpD-az-84" value="" style="group" parent="1" vertex="1" connectable="0">
          <mxGeometry width="764" height="1100" as="geometry" />
        </mxCell>
        <mxCell id="R85agXf6EkqI4fIpD-az-74" value="" style="rounded=1;whiteSpace=wrap;html=1;fontSize=14;align=center;strokeWidth=4;strokeColor=#E6E6E6;fillColor=none;arcSize=10;" parent="R85agXf6EkqI4fIpD-az-84" vertex="1">
          <mxGeometry width="230" height="1100" as="geometry" />
        </mxCell>
        <mxCell id="R85agXf6EkqI4fIpD-az-52" value="" style="rounded=1;whiteSpace=wrap;html=1;fontSize=14;align=center;strokeWidth=4;strokeColor=#E6E6E6;fillColor=none;arcSize=4;" parent="R85agXf6EkqI4fIpD-az-84" vertex="1">
          <mxGeometry x="254" width="510" height="1100" as="geometry" />
        </mxCell>
        <mxCell id="R85agXf6EkqI4fIpD-az-30" value="ens_level1_f9e6c40" style="rounded=0;whiteSpace=wrap;html=1;verticalAlign=top;fontStyle=1" parent="R85agXf6EkqI4fIpD-az-84" vertex="1">
          <mxGeometry x="564" y="409" width="170" height="277" as="geometry" />
        </mxCell>
        <mxCell id="R85agXf6EkqI4fIpD-az-5" value="cubist_level0_b2caff6_1" style="rounded=0;whiteSpace=wrap;html=1;verticalAlign=top;fontStyle=1" parent="R85agXf6EkqI4fIpD-az-84" vertex="1">
          <mxGeometry x="284" y="60" width="170" height="100" as="geometry" />
        </mxCell>
        <mxCell id="R85agXf6EkqI4fIpD-az-3" value="&lt;div align=&quot;left&quot;&gt;commitees: 79&lt;br&gt;neighbors: 6&lt;br&gt;max_rules: 280&lt;br&gt;&lt;/div&gt;" style="rounded=0;whiteSpace=wrap;html=1;align=left;spacingLeft=6;fillColor=#f5f5f5;strokeColor=#666666;fontColor=#333333;" parent="R85agXf6EkqI4fIpD-az-84" vertex="1">
          <mxGeometry x="294" y="90" width="150" height="60" as="geometry" />
        </mxCell>
        <mxCell id="R85agXf6EkqI4fIpD-az-6" value="cubist_level0_b2caff6_3" style="rounded=0;whiteSpace=wrap;html=1;verticalAlign=top;fontStyle=1" parent="R85agXf6EkqI4fIpD-az-84" vertex="1">
          <mxGeometry x="284" y="170" width="170" height="100" as="geometry" />
        </mxCell>
        <mxCell id="R85agXf6EkqI4fIpD-az-7" value="&lt;div align=&quot;left&quot;&gt;commitees: 86&lt;br&gt;neighbors: 8&lt;br&gt;max_rules: 169&lt;br&gt;&lt;/div&gt;" style="rounded=0;whiteSpace=wrap;html=1;align=left;spacingLeft=6;fillColor=#f5f5f5;strokeColor=#666666;fontColor=#333333;" parent="R85agXf6EkqI4fIpD-az-84" vertex="1">
          <mxGeometry x="294" y="200" width="150" height="60" as="geometry" />
        </mxCell>
        <mxCell id="R85agXf6EkqI4fIpD-az-8" value="rf_level0_cc50409_1" style="rounded=0;whiteSpace=wrap;html=1;verticalAlign=top;fontStyle=1" parent="R85agXf6EkqI4fIpD-az-84" vertex="1">
          <mxGeometry x="284" y="310" width="170" height="110" as="geometry" />
        </mxCell>
        <mxCell id="R85agXf6EkqI4fIpD-az-9" value="&lt;div align=&quot;left&quot;&gt;mtry: 130&lt;br&gt;trees: 1000&lt;br&gt;min_n: 5&lt;/div&gt;&lt;div align=&quot;left&quot;&gt;sample_fraction: 0.038&lt;br&gt;&lt;/div&gt;" style="rounded=0;whiteSpace=wrap;html=1;align=left;spacingLeft=6;fillColor=#f5f5f5;strokeColor=#666666;fontColor=#333333;" parent="R85agXf6EkqI4fIpD-az-84" vertex="1">
          <mxGeometry x="294" y="340" width="150" height="70" as="geometry" />
        </mxCell>
        <mxCell id="R85agXf6EkqI4fIpD-az-12" value="Cubist" style="text;html=1;strokeColor=none;fillColor=none;align=center;verticalAlign=middle;whiteSpace=wrap;rounded=0;fontStyle=1;fontSize=14;" parent="R85agXf6EkqI4fIpD-az-84" vertex="1">
          <mxGeometry x="284" y="30" width="170" height="30" as="geometry" />
        </mxCell>
        <mxCell id="R85agXf6EkqI4fIpD-az-13" value="Random Forest" style="text;html=1;strokeColor=none;fillColor=none;align=center;verticalAlign=middle;whiteSpace=wrap;rounded=0;fontStyle=1;fontSize=14;" parent="R85agXf6EkqI4fIpD-az-84" vertex="1">
          <mxGeometry x="284" y="280" width="170" height="30" as="geometry" />
        </mxCell>
        <mxCell id="R85agXf6EkqI4fIpD-az-14" value="rf_level0_cc50409_2" style="rounded=0;whiteSpace=wrap;html=1;verticalAlign=top;fontStyle=1" parent="R85agXf6EkqI4fIpD-az-84" vertex="1">
          <mxGeometry x="284" y="430" width="170" height="110" as="geometry" />
        </mxCell>
        <mxCell id="R85agXf6EkqI4fIpD-az-15" value="&lt;div align=&quot;left&quot;&gt;mtry: 162&lt;br&gt;trees: 1000&lt;br&gt;min_n: 3&lt;/div&gt;&lt;div align=&quot;left&quot;&gt;sample_fraction: 0.032&lt;br&gt;&lt;/div&gt;" style="rounded=0;whiteSpace=wrap;html=1;align=left;spacingLeft=6;fillColor=#f5f5f5;strokeColor=#666666;fontColor=#333333;" parent="R85agXf6EkqI4fIpD-az-84" vertex="1">
          <mxGeometry x="294" y="460" width="150" height="70" as="geometry" />
        </mxCell>
        <mxCell id="R85agXf6EkqI4fIpD-az-16" value="rf_level0_cc50409_3" style="rounded=0;whiteSpace=wrap;html=1;verticalAlign=top;fontStyle=1" parent="R85agXf6EkqI4fIpD-az-84" vertex="1">
          <mxGeometry x="284" y="550" width="170" height="110" as="geometry" />
        </mxCell>
        <mxCell id="R85agXf6EkqI4fIpD-az-17" value="&lt;div align=&quot;left&quot;&gt;mtry: 43&lt;br&gt;trees: 1000&lt;br&gt;min_n: 38&lt;/div&gt;&lt;div align=&quot;left&quot;&gt;sample_fraction: 1.0&lt;br&gt;&lt;/div&gt;" style="rounded=0;whiteSpace=wrap;html=1;align=left;spacingLeft=6;fillColor=#f5f5f5;strokeColor=#666666;fontColor=#333333;" parent="R85agXf6EkqI4fIpD-az-84" vertex="1">
          <mxGeometry x="294" y="580" width="150" height="70" as="geometry" />
        </mxCell>
        <mxCell id="R85agXf6EkqI4fIpD-az-18" value="xgboost_level0_9dc6cbe_1" style="rounded=0;whiteSpace=wrap;html=1;verticalAlign=top;fontStyle=1" parent="R85agXf6EkqI4fIpD-az-84" vertex="1">
          <mxGeometry x="284" y="700" width="170" height="120" as="geometry" />
        </mxCell>
        <mxCell id="R85agXf6EkqI4fIpD-az-19" value="&lt;div align=&quot;left&quot;&gt;eta: 0.096&lt;br&gt;colsample_bytree: 88&lt;br&gt;subsample: 0.677&lt;br&gt;&lt;/div&gt;&lt;div align=&quot;left&quot;&gt;max_depth: 3&lt;/div&gt;&lt;div align=&quot;left&quot;&gt;early_stop: 10&lt;br&gt;&lt;/div&gt;" style="rounded=0;whiteSpace=wrap;html=1;align=left;spacingLeft=6;fillColor=#f5f5f5;strokeColor=#666666;fontColor=#333333;" parent="R85agXf6EkqI4fIpD-az-84" vertex="1">
          <mxGeometry x="294" y="730" width="150" height="80" as="geometry" />
        </mxCell>
        <mxCell id="R85agXf6EkqI4fIpD-az-20" value="XGBoost" style="text;html=1;strokeColor=none;fillColor=none;align=center;verticalAlign=middle;whiteSpace=wrap;rounded=0;fontStyle=1;fontSize=14;" parent="R85agXf6EkqI4fIpD-az-84" vertex="1">
          <mxGeometry x="284" y="670" width="170" height="30" as="geometry" />
        </mxCell>
        <mxCell id="R85agXf6EkqI4fIpD-az-26" value="xgboost_level0_9dc6cbe_2" style="rounded=0;whiteSpace=wrap;html=1;verticalAlign=top;fontStyle=1" parent="R85agXf6EkqI4fIpD-az-84" vertex="1">
          <mxGeometry x="284" y="830" width="170" height="120" as="geometry" />
        </mxCell>
        <mxCell id="R85agXf6EkqI4fIpD-az-27" value="&lt;div align=&quot;left&quot;&gt;eta: 0.104&lt;br&gt;colsample_bytree: 180&lt;br&gt;subsample: 0.668&lt;br&gt;&lt;/div&gt;&lt;div align=&quot;left&quot;&gt;max_depth: 4&lt;br&gt;&lt;/div&gt;&lt;div align=&quot;left&quot;&gt;early_stop: 10&lt;br&gt;&lt;/div&gt;" style="rounded=0;whiteSpace=wrap;html=1;align=left;spacingLeft=6;fillColor=#f5f5f5;strokeColor=#666666;fontColor=#333333;" parent="R85agXf6EkqI4fIpD-az-84" vertex="1">
          <mxGeometry x="294" y="860" width="150" height="80" as="geometry" />
        </mxCell>
        <mxCell id="R85agXf6EkqI4fIpD-az-28" value="xgboost_level0_9dc6cbe_3" style="rounded=0;whiteSpace=wrap;html=1;verticalAlign=top;fontStyle=1" parent="R85agXf6EkqI4fIpD-az-84" vertex="1">
          <mxGeometry x="284" y="960" width="170" height="120" as="geometry" />
        </mxCell>
        <mxCell id="R85agXf6EkqI4fIpD-az-29" value="&lt;div align=&quot;left&quot;&gt;eta: 0.100&lt;br&gt;colsample_bytree: 115&lt;br&gt;subsample: 0.602&lt;br&gt;&lt;/div&gt;&lt;div align=&quot;left&quot;&gt;max_depth: 3&lt;br&gt;&lt;/div&gt;&lt;div align=&quot;left&quot;&gt;early_stop: 10&lt;br&gt;&lt;/div&gt;" style="rounded=0;whiteSpace=wrap;html=1;align=left;spacingLeft=6;fillColor=#f5f5f5;strokeColor=#666666;fontColor=#333333;" parent="R85agXf6EkqI4fIpD-az-84" vertex="1">
          <mxGeometry x="294" y="990" width="150" height="80" as="geometry" />
        </mxCell>
        <mxCell id="R85agXf6EkqI4fIpD-az-32" value="Weighted Average" style="text;html=1;strokeColor=none;fillColor=none;align=center;verticalAlign=middle;whiteSpace=wrap;rounded=0;fontStyle=1;fontSize=14;" parent="R85agXf6EkqI4fIpD-az-84" vertex="1">
          <mxGeometry x="564" y="379" width="170" height="30" as="geometry" />
        </mxCell>
        <mxCell id="R85agXf6EkqI4fIpD-az-34" value="&lt;div&gt;6.749&lt;br&gt;&lt;/div&gt;" style="rounded=0;whiteSpace=wrap;html=1;align=center;spacingLeft=0;fillColor=#f5f5f5;strokeColor=#666666;fontColor=#333333;" parent="R85agXf6EkqI4fIpD-az-84" vertex="1">
          <mxGeometry x="584" y="446" width="130" height="20" as="geometry" />
        </mxCell>
        <mxCell id="R85agXf6EkqI4fIpD-az-35" style="edgeStyle=orthogonalEdgeStyle;rounded=0;orthogonalLoop=1;jettySize=auto;html=1;exitX=1;exitY=0.5;exitDx=0;exitDy=0;entryX=0;entryY=0.5;entryDx=0;entryDy=0;fontSize=14;" parent="R85agXf6EkqI4fIpD-az-84" source="R85agXf6EkqI4fIpD-az-5" target="R85agXf6EkqI4fIpD-az-34" edge="1">
          <mxGeometry relative="1" as="geometry">
            <Array as="points">
              <mxPoint x="514" y="110" />
              <mxPoint x="514" y="456" />
            </Array>
          </mxGeometry>
        </mxCell>
        <mxCell id="R85agXf6EkqI4fIpD-az-36" value="&lt;div&gt;4.141&lt;/div&gt;" style="rounded=0;whiteSpace=wrap;html=1;align=center;spacingLeft=0;fillColor=#f5f5f5;strokeColor=#666666;fontColor=#333333;" parent="R85agXf6EkqI4fIpD-az-84" vertex="1">
          <mxGeometry x="584" y="476" width="130" height="20" as="geometry" />
        </mxCell>
        <mxCell id="R85agXf6EkqI4fIpD-az-37" style="edgeStyle=orthogonalEdgeStyle;rounded=0;orthogonalLoop=1;jettySize=auto;html=1;exitX=1;exitY=0.5;exitDx=0;exitDy=0;entryX=0;entryY=0.5;entryDx=0;entryDy=0;fontSize=14;" parent="R85agXf6EkqI4fIpD-az-84" source="R85agXf6EkqI4fIpD-az-6" target="R85agXf6EkqI4fIpD-az-36" edge="1">
          <mxGeometry relative="1" as="geometry">
            <Array as="points">
              <mxPoint x="504" y="220" />
              <mxPoint x="504" y="486" />
            </Array>
          </mxGeometry>
        </mxCell>
        <mxCell id="R85agXf6EkqI4fIpD-az-38" value="&lt;div&gt;3.388&lt;/div&gt;" style="rounded=0;whiteSpace=wrap;html=1;align=center;spacingLeft=0;fillColor=#f5f5f5;strokeColor=#666666;fontColor=#333333;" parent="R85agXf6EkqI4fIpD-az-84" vertex="1">
          <mxGeometry x="584" y="506" width="130" height="20" as="geometry" />
        </mxCell>
        <mxCell id="R85agXf6EkqI4fIpD-az-39" style="edgeStyle=orthogonalEdgeStyle;rounded=0;orthogonalLoop=1;jettySize=auto;html=1;exitX=1;exitY=0.5;exitDx=0;exitDy=0;entryX=0;entryY=0.5;entryDx=0;entryDy=0;fontSize=14;" parent="R85agXf6EkqI4fIpD-az-84" source="R85agXf6EkqI4fIpD-az-8" target="R85agXf6EkqI4fIpD-az-38" edge="1">
          <mxGeometry relative="1" as="geometry">
            <Array as="points">
              <mxPoint x="494" y="365" />
              <mxPoint x="494" y="516" />
            </Array>
          </mxGeometry>
        </mxCell>
        <mxCell id="R85agXf6EkqI4fIpD-az-40" value="&lt;div&gt;8.652&lt;/div&gt;" style="rounded=0;whiteSpace=wrap;html=1;align=center;spacingLeft=0;fillColor=#f5f5f5;strokeColor=#666666;fontColor=#333333;" parent="R85agXf6EkqI4fIpD-az-84" vertex="1">
          <mxGeometry x="584" y="536" width="130" height="20" as="geometry" />
        </mxCell>
        <mxCell id="R85agXf6EkqI4fIpD-az-41" style="edgeStyle=orthogonalEdgeStyle;rounded=0;orthogonalLoop=1;jettySize=auto;html=1;exitX=1;exitY=0.5;exitDx=0;exitDy=0;entryX=0;entryY=0.5;entryDx=0;entryDy=0;fontSize=14;" parent="R85agXf6EkqI4fIpD-az-84" source="R85agXf6EkqI4fIpD-az-14" target="R85agXf6EkqI4fIpD-az-40" edge="1">
          <mxGeometry relative="1" as="geometry">
            <Array as="points">
              <mxPoint x="484" y="485" />
              <mxPoint x="484" y="546" />
            </Array>
          </mxGeometry>
        </mxCell>
        <mxCell id="R85agXf6EkqI4fIpD-az-42" value="&lt;div&gt;0.258&lt;/div&gt;" style="rounded=0;whiteSpace=wrap;html=1;align=center;spacingLeft=0;fillColor=#f5f5f5;strokeColor=#666666;fontColor=#333333;" parent="R85agXf6EkqI4fIpD-az-84" vertex="1">
          <mxGeometry x="584" y="566" width="130" height="20" as="geometry" />
        </mxCell>
        <mxCell id="R85agXf6EkqI4fIpD-az-43" style="edgeStyle=orthogonalEdgeStyle;rounded=0;orthogonalLoop=1;jettySize=auto;html=1;exitX=1;exitY=0.5;exitDx=0;exitDy=0;fontSize=14;" parent="R85agXf6EkqI4fIpD-az-84" source="R85agXf6EkqI4fIpD-az-16" target="R85agXf6EkqI4fIpD-az-42" edge="1">
          <mxGeometry relative="1" as="geometry">
            <Array as="points">
              <mxPoint x="484" y="605" />
              <mxPoint x="484" y="576" />
            </Array>
          </mxGeometry>
        </mxCell>
        <mxCell id="R85agXf6EkqI4fIpD-az-44" value="&lt;div&gt;1.239&lt;/div&gt;" style="rounded=0;whiteSpace=wrap;html=1;align=center;spacingLeft=0;fillColor=#f5f5f5;strokeColor=#666666;fontColor=#333333;" parent="R85agXf6EkqI4fIpD-az-84" vertex="1">
          <mxGeometry x="584" y="596" width="130" height="20" as="geometry" />
        </mxCell>
        <mxCell id="R85agXf6EkqI4fIpD-az-45" style="edgeStyle=orthogonalEdgeStyle;rounded=0;orthogonalLoop=1;jettySize=auto;html=1;exitX=1;exitY=0.5;exitDx=0;exitDy=0;entryX=0;entryY=0.5;entryDx=0;entryDy=0;fontSize=14;" parent="R85agXf6EkqI4fIpD-az-84" source="R85agXf6EkqI4fIpD-az-18" target="R85agXf6EkqI4fIpD-az-44" edge="1">
          <mxGeometry relative="1" as="geometry">
            <Array as="points">
              <mxPoint x="494" y="760" />
              <mxPoint x="494" y="606" />
            </Array>
          </mxGeometry>
        </mxCell>
        <mxCell id="R85agXf6EkqI4fIpD-az-46" value="&lt;div&gt;2.384&lt;/div&gt;" style="rounded=0;whiteSpace=wrap;html=1;align=center;spacingLeft=0;fillColor=#f5f5f5;strokeColor=#666666;fontColor=#333333;" parent="R85agXf6EkqI4fIpD-az-84" vertex="1">
          <mxGeometry x="584" y="626" width="130" height="20" as="geometry" />
        </mxCell>
        <mxCell id="R85agXf6EkqI4fIpD-az-47" style="edgeStyle=orthogonalEdgeStyle;rounded=0;orthogonalLoop=1;jettySize=auto;html=1;exitX=1;exitY=0.5;exitDx=0;exitDy=0;entryX=0;entryY=0.5;entryDx=0;entryDy=0;fontSize=14;" parent="R85agXf6EkqI4fIpD-az-84" source="R85agXf6EkqI4fIpD-az-26" target="R85agXf6EkqI4fIpD-az-46" edge="1">
          <mxGeometry relative="1" as="geometry">
            <Array as="points">
              <mxPoint x="504" y="890" />
              <mxPoint x="504" y="636" />
            </Array>
          </mxGeometry>
        </mxCell>
        <mxCell id="R85agXf6EkqI4fIpD-az-48" value="&lt;div&gt;1.082&lt;/div&gt;" style="rounded=0;whiteSpace=wrap;html=1;align=center;spacingLeft=0;fillColor=#f5f5f5;strokeColor=#666666;fontColor=#333333;" parent="R85agXf6EkqI4fIpD-az-84" vertex="1">
          <mxGeometry x="584" y="656" width="130" height="20" as="geometry" />
        </mxCell>
        <mxCell id="R85agXf6EkqI4fIpD-az-53" value="MODEL" style="text;html=1;strokeColor=none;fillColor=none;align=center;verticalAlign=middle;whiteSpace=wrap;rounded=0;fontStyle=1;fontSize=20;fontColor=#B3B3B3;" parent="R85agXf6EkqI4fIpD-az-84" vertex="1">
          <mxGeometry x="254" width="510" height="40" as="geometry" />
        </mxCell>
        <mxCell id="R85agXf6EkqI4fIpD-az-75" value="DATA" style="text;html=1;strokeColor=none;fillColor=none;align=center;verticalAlign=middle;whiteSpace=wrap;rounded=0;fontStyle=1;fontSize=20;fontColor=#B3B3B3;" parent="R85agXf6EkqI4fIpD-az-84" vertex="1">
          <mxGeometry width="230" height="40" as="geometry" />
        </mxCell>
        <mxCell id="R85agXf6EkqI4fIpD-az-49" style="edgeStyle=orthogonalEdgeStyle;rounded=0;orthogonalLoop=1;jettySize=auto;html=1;exitX=1;exitY=0.5;exitDx=0;exitDy=0;entryX=0;entryY=0.5;entryDx=0;entryDy=0;fontSize=14;" parent="R85agXf6EkqI4fIpD-az-84" source="R85agXf6EkqI4fIpD-az-28" target="R85agXf6EkqI4fIpD-az-48" edge="1">
          <mxGeometry relative="1" as="geometry">
            <Array as="points">
              <mxPoint x="514" y="1020" />
              <mxPoint x="514" y="666" />
            </Array>
          </mxGeometry>
        </mxCell>
        <mxCell id="R85agXf6EkqI4fIpD-az-83" value="" style="endArrow=classic;html=1;strokeWidth=4;fontSize=12;fontColor=#000000;entryX=0;entryY=0.5;entryDx=0;entryDy=0;exitX=1;exitY=0.5;exitDx=0;exitDy=0;strokeColor=#E6E6E6;" parent="R85agXf6EkqI4fIpD-az-84" source="R85agXf6EkqI4fIpD-az-74" target="R85agXf6EkqI4fIpD-az-52" edge="1">
          <mxGeometry width="50" height="50" relative="1" as="geometry">
            <mxPoint x="224" y="480" as="sourcePoint" />
            <mxPoint x="274" y="430" as="targetPoint" />
          </mxGeometry>
        </mxCell>
        <mxCell id="R85agXf6EkqI4fIpD-az-54" value="&lt;a href=&quot;https://github.com/flrs/caiso_wind_forecast/blob/main/data/raw/db_pull_production_data_raw_20201208.csv&quot;&gt;db_pull_&lt;br&gt;production_data_&lt;br&gt;raw_20201208.csv&lt;/a&gt;" style="shape=document;whiteSpace=wrap;html=1;boundedLbl=1;strokeWidth=1;fontSize=12;align=center;fontStyle=1" parent="R85agXf6EkqI4fIpD-az-84" vertex="1">
          <mxGeometry x="20" y="140" width="120" height="70" as="geometry" />
        </mxCell>
        <mxCell id="R85agXf6EkqI4fIpD-az-55" value="db_pull_&lt;br&gt;weather_data_&lt;br&gt;raw_20201208.csv" style="shape=document;whiteSpace=wrap;html=1;boundedLbl=1;strokeWidth=1;fontSize=12;align=center;fontStyle=1" parent="R85agXf6EkqI4fIpD-az-84" vertex="1">
          <mxGeometry x="20" y="220" width="120" height="70" as="geometry" />
        </mxCell>
        <mxCell id="R85agXf6EkqI4fIpD-az-56" value="db_pull_feature_&lt;br&gt;gross_production_&lt;br&gt;20201209.csv" style="shape=document;whiteSpace=wrap;html=1;boundedLbl=1;strokeWidth=1;fontSize=12;align=center;fontStyle=1" parent="R85agXf6EkqI4fIpD-az-84" vertex="1">
          <mxGeometry x="20" y="300" width="120" height="70" as="geometry" />
        </mxCell>
        <mxCell id="R85agXf6EkqI4fIpD-az-58" value="&lt;div&gt;comb_data_rev8.R&lt;/div&gt;" style="rounded=0;whiteSpace=wrap;html=1;verticalAlign=top;fontStyle=1" parent="R85agXf6EkqI4fIpD-az-84" vertex="1">
          <mxGeometry x="30" y="428.5" width="170" height="284" as="geometry" />
        </mxCell>
        <mxCell id="R85agXf6EkqI4fIpD-az-71" style="edgeStyle=orthogonalEdgeStyle;rounded=0;orthogonalLoop=1;jettySize=auto;html=1;exitX=1;exitY=0.5;exitDx=0;exitDy=0;entryX=0.75;entryY=0;entryDx=0;entryDy=0;fontSize=12;fontColor=#000000;" parent="R85agXf6EkqI4fIpD-az-84" source="R85agXf6EkqI4fIpD-az-54" target="R85agXf6EkqI4fIpD-az-58" edge="1">
          <mxGeometry x="10" y="150.5" as="geometry">
            <Array as="points">
              <mxPoint x="158" y="185.5" />
            </Array>
          </mxGeometry>
        </mxCell>
        <mxCell id="R85agXf6EkqI4fIpD-az-70" style="edgeStyle=orthogonalEdgeStyle;rounded=0;orthogonalLoop=1;jettySize=auto;html=1;exitX=1;exitY=0.5;exitDx=0;exitDy=0;entryX=0.75;entryY=0;entryDx=0;entryDy=0;fontSize=12;fontColor=#000000;" parent="R85agXf6EkqI4fIpD-az-84" source="R85agXf6EkqI4fIpD-az-55" target="R85agXf6EkqI4fIpD-az-58" edge="1">
          <mxGeometry x="10" y="150.5" as="geometry">
            <Array as="points">
              <mxPoint x="158" y="265.5" />
            </Array>
          </mxGeometry>
        </mxCell>
        <mxCell id="R85agXf6EkqI4fIpD-az-69" style="edgeStyle=orthogonalEdgeStyle;rounded=0;orthogonalLoop=1;jettySize=auto;html=1;exitX=1;exitY=0.5;exitDx=0;exitDy=0;entryX=0.75;entryY=0;entryDx=0;entryDy=0;fontSize=12;fontColor=#000000;" parent="R85agXf6EkqI4fIpD-az-84" source="R85agXf6EkqI4fIpD-az-56" target="R85agXf6EkqI4fIpD-az-58" edge="1">
          <mxGeometry x="10" y="150.5" as="geometry">
            <Array as="points">
              <mxPoint x="158" y="345.5" />
            </Array>
          </mxGeometry>
        </mxCell>
        <mxCell id="R85agXf6EkqI4fIpD-az-59" value="join" style="rounded=0;whiteSpace=wrap;html=1;strokeColor=#666666;strokeWidth=1;fillColor=#f5f5f5;fontSize=12;fontColor=#333333;align=center;" parent="R85agXf6EkqI4fIpD-az-84" vertex="1">
          <mxGeometry x="40" y="458.5" width="150" height="30" as="geometry" />
        </mxCell>
        <mxCell id="R85agXf6EkqI4fIpD-az-64" value="add time-based features" style="rounded=0;whiteSpace=wrap;html=1;strokeColor=#666666;strokeWidth=1;fillColor=#f5f5f5;fontSize=12;fontColor=#333333;align=center;" parent="R85agXf6EkqI4fIpD-az-84" vertex="1">
          <mxGeometry x="40" y="619.5" width="150" height="29" as="geometry" />
        </mxCell>
        <mxCell id="R85agXf6EkqI4fIpD-az-65" value="filter features" style="rounded=0;whiteSpace=wrap;html=1;strokeColor=#666666;strokeWidth=1;fillColor=#f5f5f5;fontSize=12;fontColor=#333333;align=center;" parent="R85agXf6EkqI4fIpD-az-84" vertex="1">
          <mxGeometry x="40" y="672" width="150" height="29" as="geometry" />
        </mxCell>
        <mxCell id="R85agXf6EkqI4fIpD-az-73" style="edgeStyle=orthogonalEdgeStyle;rounded=0;orthogonalLoop=1;jettySize=auto;html=1;exitX=0;exitY=0.5;exitDx=0;exitDy=0;entryX=0;entryY=0.5;entryDx=0;entryDy=0;fontSize=12;fontColor=#000000;" parent="R85agXf6EkqI4fIpD-az-84" source="R85agXf6EkqI4fIpD-az-67" target="R85agXf6EkqI4fIpD-az-65" edge="1">
          <mxGeometry x="10" y="150.5" as="geometry">
            <Array as="points">
              <mxPoint x="10" y="804.5" />
              <mxPoint x="10" y="686.5" />
            </Array>
          </mxGeometry>
        </mxCell>
        <mxCell id="R85agXf6EkqI4fIpD-az-67" value="&lt;div&gt;rf_feat.R&lt;/div&gt;" style="rounded=0;whiteSpace=wrap;html=1;verticalAlign=top;fontStyle=1" parent="R85agXf6EkqI4fIpD-az-84" vertex="1">
          <mxGeometry x="30" y="769.5" width="170" height="70" as="geometry" />
        </mxCell>
        <mxCell id="R85agXf6EkqI4fIpD-az-72" style="edgeStyle=orthogonalEdgeStyle;rounded=0;orthogonalLoop=1;jettySize=auto;html=1;exitX=0.5;exitY=1;exitDx=0;exitDy=0;entryX=1;entryY=0.5;entryDx=0;entryDy=0;fontSize=12;fontColor=#000000;" parent="R85agXf6EkqI4fIpD-az-84" source="R85agXf6EkqI4fIpD-az-64" target="R85agXf6EkqI4fIpD-az-67" edge="1">
          <mxGeometry x="10" y="150.5" as="geometry">
            <Array as="points">
              <mxPoint x="115" y="660.5" />
              <mxPoint x="210" y="660.5" />
              <mxPoint x="210" y="804.5" />
            </Array>
          </mxGeometry>
        </mxCell>
        <mxCell id="R85agXf6EkqI4fIpD-az-68" value="select top 50% features" style="rounded=0;whiteSpace=wrap;html=1;strokeColor=#666666;strokeWidth=1;fillColor=#f5f5f5;fontSize=12;fontColor=#333333;align=center;" parent="R85agXf6EkqI4fIpD-az-84" vertex="1">
          <mxGeometry x="40" y="800.5" width="150" height="29" as="geometry" />
        </mxCell>
        <mxCell id="R85agXf6EkqI4fIpD-az-76" value="&lt;b&gt;comb_data_&lt;br&gt;rev8.rds&lt;/b&gt;" style="shape=document;whiteSpace=wrap;html=1;boundedLbl=1;strokeWidth=1;fontSize=12;align=center;" parent="R85agXf6EkqI4fIpD-az-84" vertex="1">
          <mxGeometry x="55" y="881.5" width="120" height="68" as="geometry" />
        </mxCell>
        <mxCell id="R85agXf6EkqI4fIpD-az-78" value="Random Forest" style="text;html=1;strokeColor=none;fillColor=none;align=center;verticalAlign=middle;whiteSpace=wrap;rounded=0;fontStyle=1;fontSize=14;" parent="R85agXf6EkqI4fIpD-az-84" vertex="1">
          <mxGeometry x="30" y="739.5" width="170" height="30" as="geometry" />
        </mxCell>
        <mxCell id="R85agXf6EkqI4fIpD-az-79" value="&lt;div align=&quot;left&quot;&gt;Feature &lt;br&gt;&lt;/div&gt;&lt;div align=&quot;left&quot;&gt;Engineering&lt;br&gt;&lt;/div&gt;" style="text;html=1;strokeColor=none;fillColor=none;align=left;verticalAlign=middle;whiteSpace=wrap;rounded=0;fontStyle=1;fontSize=14;" parent="R85agXf6EkqI4fIpD-az-84" vertex="1">
          <mxGeometry x="30" y="380" width="170" height="48.5" as="geometry" />
        </mxCell>
        <mxCell id="R85agXf6EkqI4fIpD-az-77" style="edgeStyle=orthogonalEdgeStyle;rounded=0;orthogonalLoop=1;jettySize=auto;html=1;exitX=0.5;exitY=1;exitDx=0;exitDy=0;fontSize=12;fontColor=#000000;" parent="R85agXf6EkqI4fIpD-az-84" source="R85agXf6EkqI4fIpD-az-65" target="R85agXf6EkqI4fIpD-az-76" edge="1">
          <mxGeometry x="10" y="150.5" as="geometry">
            <Array as="points">
              <mxPoint x="115" y="730.5" />
              <mxPoint x="220" y="730.5" />
              <mxPoint x="220" y="860.5" />
              <mxPoint x="115" y="860.5" />
            </Array>
          </mxGeometry>
        </mxCell>
        <mxCell id="R85agXf6EkqI4fIpD-az-80" value="" style="endArrow=none;html=1;fontSize=12;fontColor=#000000;entryX=0.5;entryY=1;entryDx=0;entryDy=0;exitX=0.5;exitY=0;exitDx=0;exitDy=0;" parent="R85agXf6EkqI4fIpD-az-84" source="R85agXf6EkqI4fIpD-az-64" target="R85agXf6EkqI4fIpD-az-59" edge="1">
          <mxGeometry x="10" y="150.5" width="50" height="50" as="geometry">
            <mxPoint x="220" y="548.5" as="sourcePoint" />
            <mxPoint x="270" y="498.5" as="targetPoint" />
          </mxGeometry>
        </mxCell>
        <mxCell id="R85agXf6EkqI4fIpD-az-61" value="clean" style="rounded=0;whiteSpace=wrap;html=1;strokeColor=#666666;strokeWidth=1;fillColor=#f5f5f5;fontSize=12;fontColor=#333333;align=center;" parent="R85agXf6EkqI4fIpD-az-84" vertex="1">
          <mxGeometry x="40" y="498.5" width="150" height="30" as="geometry" />
        </mxCell>
        <mxCell id="R85agXf6EkqI4fIpD-az-62" value="add lagging features" style="rounded=0;whiteSpace=wrap;html=1;strokeColor=#666666;strokeWidth=1;fillColor=#f5f5f5;fontSize=12;fontColor=#333333;align=center;" parent="R85agXf6EkqI4fIpD-az-84" vertex="1">
          <mxGeometry x="40" y="538.5" width="150" height="30" as="geometry" />
        </mxCell>
        <mxCell id="R85agXf6EkqI4fIpD-az-63" value="add holiday features" style="rounded=0;whiteSpace=wrap;html=1;strokeColor=#666666;strokeWidth=1;fillColor=#f5f5f5;fontSize=12;fontColor=#333333;align=center;" parent="R85agXf6EkqI4fIpD-az-84" vertex="1">
          <mxGeometry x="40" y="578.5" width="150" height="30" as="geometry" />
        </mxCell>
      </root>
    </mxGraphModel>
  </diagram>
</mxfile>
